<?xml version="1.0" encoding="UTF-8" standalone="no"?>
<svg width="280px" height="280px" viewBox="0 0 280 280" version="1.1" xmlns="http://www.w3.org/2000/svg" xmlns:xlink="http://www.w3.org/1999/xlink" xmlns:sketch="http://www.bohemiancoding.com/sketch/ns">
    <!-- Generator: Sketch 3.0.4 (8053) - http://www.bohemiancoding.com/sketch -->
    <title>Website</title>
    <desc>Created with Sketch.</desc>
    <defs>
        <path id="path-1" d="M97.6196667,0 L182.380333,0 C210.49,0 224.541333,0 239.673,4.78333333 C256.193,10.7963333 269.203667,23.807 275.216667,40.327 C280,55.4563333 280,69.5123333 280,97.6196667 L280,182.380333 C280,210.49 280,224.541333 275.216667,239.673 C269.203667,256.193 256.193,269.203667 239.673,275.214333 C224.541333,280 210.49,280 182.380333,280 L97.6196667,280 C69.51,280 55.4563333,280 40.327,275.214333 C23.807,269.203667 10.7963333,256.193 4.78333333,239.673 C0,224.541333 0,210.49 0,182.380333 L0,97.6196667 C0,69.5123333 0,55.4563333 4.78333333,40.327 C10.7963333,23.807 23.807,10.7963333 40.327,4.78333333 C55.4563333,0 69.51,0 97.6196667,0 L97.6196667,0"></path>
        <linearGradient x1="50%" y1="0%" x2="50%" y2="100%" id="linearGradient-3">
            <stop stop-color="#FFFFFF" offset="0%"></stop>
            <stop stop-color="#EDFBF0" offset="100%"></stop>
        </linearGradient>
    </defs>
    <g id="Page-1" stroke="none" stroke-width="1" fill="none" fill-rule="evenodd" sketch:type="MSPage">
        <g id="Website" sketch:type="MSArtboardGroup">
            <mask id="mask-2" sketch:name="Icon Shape" fill="white">
                <use xlink:href="#path-1"></use>
            </mask>
            <use id="Icon-Shape" fill="#D7D7D7" sketch:type="MSShapeGroup" xlink:href="#path-1"></use>
            <rect id="Background" fill="url(#linearGradient-3)" sketch:type="MSShapeGroup" mask="url(#mask-2)" x="0" y="0" width="280" height="280"></rect>
            <path d="M140.158695,26.2802378 L140.154375,25.6535774 L140.158695,26.2802378 C139.573953,27.5459171 131.99967,39.3470505 119.468041,39.3470505 C106.193242,39.3470505 95.8097488,34.2516187 81.9026796,44.2825457 C67.9912897,54.3120187 70.8739532,71.9799139 70.8739532,71.9799139 C70.8739532,71.9799139 62.2389249,70.2249743 52.3307142,75.1568346 C42.419623,80.0959647 37.3045695,92.0344981 37.3045695,99.3537743 C37.3045695,106.675231 38.5820727,109.701666 38.5820727,116.546949 C38.5820727,123.382781 36.0321073,135.620104 25.6694972,140.563596 C25.6694972,140.563596 25.6471733,140.574501 25.6558148,140.574501 C25.6464532,140.574501 25.6694972,140.589041 25.6694972,140.589041 C36.0313871,145.532533 38.5820727,157.764768 38.5820727,164.606416 C38.5820727,171.449517 37.3045695,174.47159 37.3045695,181.797409 C37.3045695,189.108689 42.419623,201.055946 52.3307142,205.994349 C62.2389249,210.927663 70.8739532,209.170543 70.8739532,209.170543 C70.8739532,209.170543 67.9912897,226.839165 81.9026796,236.868638 C95.8090287,246.895203 106.193242,241.806314 119.468041,241.806314 C131.99895,241.806314 139.380959,253.576187 140.158695,254.856406 L140.158695,254.873854 L140.158695,254.863676 C140.158695,254.863676 140.162296,254.863676 140.162296,254.873854 L140.162296,254.856406 C140.93139,253.576187 148.306198,241.806314 160.849349,241.806314 C174.116227,241.806314 184.49828,246.89593 198.41111,236.868638 C212.316019,226.839165 209.442717,209.170543 209.442717,209.170543 C209.442717,209.170543 218.067664,210.926936 227.975875,205.994349 C237.889126,201.055946 243.001299,189.108689 243.001299,181.797409 C243.001299,174.472317 241.726676,171.449517 241.726676,164.606416 C241.726676,157.764768 244.280963,145.531806 254.636371,140.589041 C254.636371,140.589041 254.661576,140.574501 254.651494,140.574501 C254.661576,140.574501 254.636371,140.559235 254.636371,140.559235 C244.280963,135.620104 241.726676,123.382781 241.726676,116.546949 C241.726676,109.701666 243.001299,106.674504 243.001299,99.3537743 C243.001299,92.0352251 237.889126,80.0959647 227.975875,75.1568346 C218.067664,70.2242473 209.442717,71.9799139 209.442717,71.9799139 C209.442717,71.9799139 212.315299,54.3120187 198.41111,44.2825457 C184.49756,34.2516187 174.115507,39.3470505 160.849349,39.3470505 C148.306198,39.3470505 141.182714,27.4644949 140.162296,26.2802378" id="Outer" fill="#53D769" sketch:type="MSShapeGroup" mask="url(#mask-2)"></path>
            <path d="M140.158779,40.1956491 L140.154563,39.6464379 L140.158779,40.1956491 C139.645738,41.3046879 132.996573,51.6427407 121.996391,51.6427407 C110.344014,51.6427407 101.228734,47.1789836 89.0218494,55.9663639 C76.810748,64.7523287 79.3408179,80.2307442 79.3408179,80.2307442 C79.3408179,80.2307442 71.7611501,78.6928111 63.0640347,83.0143111 C54.3641081,87.3414731 49.8739368,97.8005505 49.8739368,104.211318 C49.8739368,110.624917 50.9948984,113.276843 50.9948984,119.273579 C50.9948984,125.262529 48.7564893,135.982765 39.6601851,140.313466 C39.6601851,140.313466 39.6405067,140.323374 39.6482375,140.323374 C39.6405067,140.323374 39.6601851,140.336114 39.6601851,140.336114 C48.7557865,144.666815 50.9948984,155.382804 50.9948984,161.376709 C50.9948984,167.371322 49.8739368,170.019001 49.8739368,176.436846 C49.8739368,182.841244 54.3641081,193.308107 63.0640347,197.633853 C71.7611501,201.955353 79.3408179,200.416713 79.3408179,200.416713 C79.3408179,200.416713 76.810748,215.895836 89.0218494,224.681801 C101.228734,233.465642 110.344014,229.007547 121.996391,229.007547 C132.996573,229.007547 139.476363,239.318705 140.158779,240.440484 L140.158779,240.456054 L140.158779,240.447561 C140.158779,240.447561 140.161591,240.447561 140.161591,240.456054 L140.161591,240.440484 C140.836276,239.318705 147.310444,229.007547 158.320465,229.007547 C169.965814,229.007547 179.078986,233.46635 191.292196,224.681801 C203.497675,215.895836 200.976038,200.416713 200.976038,200.416713 C200.976038,200.416713 208.547272,201.955353 217.244388,197.633853 C225.94572,193.308107 230.433783,182.841244 230.433783,176.436846 C230.433783,170.019709 229.31493,167.371322 229.31493,161.376709 C229.31493,155.382804 231.556853,144.666815 240.646832,140.336114 C240.646832,140.336114 240.668619,140.323374 240.660185,140.323374 C240.669321,140.323374 240.646832,140.309927 240.646832,140.309927 C231.556853,135.983473 229.31493,125.262529 229.31493,119.273579 C229.31493,113.276843 230.433783,110.624917 230.433783,104.211318 C230.433783,97.7998428 225.946423,87.3407653 217.244388,83.0143111 C208.547272,78.6935188 200.976038,80.2307442 200.976038,80.2307442 C200.976038,80.2307442 203.497675,64.7523287 191.292196,55.9663639 C179.078986,47.1789836 169.965814,51.6427407 158.320465,51.6427407 C147.310444,51.6427407 141.056954,41.2332055 140.161591,40.1956491" id="Middle" fill="#FFFFFF" sketch:type="MSShapeGroup" mask="url(#mask-2)"></path>
            <path d="M139.940741,51.4869675 L139.937153,51 L139.940741,51.4869675 C139.486411,52.4695854 133.60308,61.6315203 123.869782,61.6315203 C113.558701,61.6315203 105.492717,57.6757236 94.6907012,65.4628618 C83.8850963,73.2485528 86.1244512,86.9646829 86.1244512,86.9646829 C86.1244512,86.9646829 79.4171528,85.602187 71.7215237,89.4313577 C64.0230237,93.2655935 60.0496044,102.533894 60.0496044,108.215423 C60.0496044,113.899122 61.0415237,116.248577 61.0415237,121.562528 C61.0415237,126.869244 59.060556,136.369813 51.0117979,140.206943 C51.0117979,140.206943 50.9945721,140.215626 51.0017495,140.215626 C50.9945721,140.215626 51.0117979,140.22648 51.0117979,140.22648 C59.060556,144.06361 61.0415237,153.559837 61.0415237,158.871618 C61.0415237,164.184122 60.0496044,166.529959 60.0496044,172.217276 C60.0496044,177.893016 64.022306,187.167829 71.7215237,191.001341 C79.4178705,194.831236 86.1244512,193.467293 86.1244512,193.467293 C86.1244512,193.467293 83.8850963,207.184146 94.6907012,214.969837 C105.492717,222.754081 113.557983,218.802626 123.869782,218.802626 C133.60308,218.802626 139.337121,227.939959 139.940741,228.933431 L139.940741,228.947179 L139.940741,228.93922 C139.940741,228.93922 139.943612,228.93922 139.943612,228.947179 L139.943612,228.933431 C140.540774,227.939236 146.26979,218.802626 156.012419,218.802626 C166.31704,218.802626 174.381588,222.753358 185.188629,214.969837 C195.989209,207.184146 193.75775,193.467293 193.75775,193.467293 C193.75775,193.467293 200.457153,194.831236 208.1535,191.001341 C215.853435,187.167829 219.824701,177.893016 219.824701,172.217276 C219.824701,166.530683 218.834217,164.184122 218.834217,158.871618 C218.834217,153.559837 220.818056,144.06361 228.86179,140.22648 C228.86179,140.22648 228.881169,140.215626 228.873274,140.215626 C228.881169,140.215626 228.86179,140.204049 228.86179,140.204049 C220.818056,136.369813 218.834217,126.869967 218.834217,121.562528 C218.834217,116.248577 219.824701,113.898398 219.824701,108.215423 C219.824701,102.533894 215.853435,93.2655935 208.1535,89.4313577 C200.457153,85.602187 193.75775,86.9646829 193.75775,86.9646829 C193.75775,86.9646829 195.989209,73.2485528 185.188629,65.4628618 C174.381588,57.6757236 166.31704,61.6315203 156.012419,61.6315203 C146.26979,61.6315203 140.736,52.4073577 139.943612,51.4869675" id="Inner" fill="#53D769" sketch:type="MSShapeGroup" mask="url(#mask-2)"></path>
            <path d="M184.346502,158.62773 C168.675711,158.62773 160.944247,152.311508 160.944247,140.305634 C160.944247,127.363016 169.841123,121.271457 184.346502,121.271457 C199.381475,121.271457 207.781618,127.363016 207.781618,139.992349 C207.781618,151.602537 200.228214,158.62773 184.346502,158.62773 L184.346502,158.62773 Z M184.346502,123.047773 C181.804756,123.047773 180.641635,127.363016 180.641635,140.262101 C180.641635,153.514894 181.662613,156.849082 184.346502,156.849082 C186.888248,156.849082 188.051369,152.669881 188.051369,140.262101 C188.051369,126.517225 187.030391,123.047773 184.346502,123.047773 L184.346502,123.047773 Z M136.167186,158.62773 C120.496395,158.62773 112.764931,152.311508 112.764931,140.305634 C112.764931,127.363016 121.661808,121.271457 136.167186,121.271457 C151.202159,121.271457 159.602302,127.363016 159.602302,139.992349 C159.602302,151.602537 152.048898,158.62773 136.167186,158.62773 L136.167186,158.62773 Z M136.167186,123.047773 C133.62544,123.047773 132.46232,127.363016 132.46232,140.262101 C132.46232,153.514894 133.483298,156.849082 136.167186,156.849082 C138.708933,156.849082 139.871289,152.669881 139.871289,140.262101 C139.871289,126.517225 138.850311,123.047773 136.167186,123.047773 L136.167186,123.047773 Z M95.8362578,157.649785 C89.6225054,157.649785 78.8227578,157.871338 72.6120622,157.871338 L72.6120622,155.958981 C81.4699645,155.958981 85.1771239,151.555116 85.1771239,143.016362 L85.1771239,134.210966 C82.0721582,135.055979 77.3073389,135.10029 74.51799,135.10029 L74.51799,132.877757 C85.5294225,132.877757 88.5648454,128.875799 91.1073561,122.024739 C93.3663466,122.024739 97.2813698,122.249402 99.5403603,122.249402 C101.799351,122.249402 105.718195,122.024739 107.976421,122.024739 C107.976421,122.024739 106.882844,128.29665 106.882844,138.61483 C106.882844,148.575415 109.635511,155.958203 119.059689,155.958203 L119.059689,157.870561 C112.846701,157.871338 102.046189,157.649785 95.8362578,157.649785 L95.8362578,157.649785 Z" id="100" fill="#FFFFFF" sketch:type="MSShapeGroup" mask="url(#mask-2)"></path>
        </g>
    </g>
</svg>